<?xml version="1.0" encoding="utf-8"?>
<!-- Generator: Adobe Illustrator 17.0.0, SVG Export Plug-In . SVG Version: 6.00 Build 0)  -->
<!DOCTYPE svg PUBLIC "-//W3C//DTD SVG 1.1//EN" "http://www.w3.org/Graphics/SVG/1.1/DTD/svg11.dtd">
<svg version="1.1" id="Layer_1" xmlns="http://www.w3.org/2000/svg" xmlns:xlink="http://www.w3.org/1999/xlink" x="0px" y="0px"
	 width="132.667px" height="132.333px" viewBox="-53.183 -53.183 132.667 132.333"
	 enable-background="new -53.183 -53.183 132.667 132.333" xml:space="preserve">
<path fill="none" stroke="#00519E" stroke-width="10" stroke-linecap="round" stroke-linejoin="round" stroke-miterlimit="10" d="
	M-47.6,12.983c0-33.55,27.2-60.75,60.75-60.75c33.6,0,60.75,27.2,60.75,60.75s-27.15,60.75-60.75,60.75
	C-20.4,73.733-47.6,46.533-47.6,12.983z"/>
<g>
	<path fill="#00519E" d="M-6.6,2.433h6.2c1.1,0,2.05-0.95,2.05-2.1v-1c0-1.15-0.95-2.05-2.05-2.05h-6.2c-1.15,0-2.05,0.9-2.05,2.05
		v1C-8.65,1.483-7.75,2.433-6.6,2.433z M22.25-2.717c-8.55,0-15.45,6.9-15.45,15.4c0,8.55,6.9,15.45,15.45,15.45
		c8.5,0,15.4-6.9,15.4-15.45C37.65,4.183,30.75-2.717,22.25-2.717z M-13.8-7.867h3.1c2.05,0,2.05-5.15,4.1-5.15h2.05h0.05h0.05h0.05
		h0.05h0.05h0.1h0.05h0.1H-4h0.05h0.05h0.05h0.1h0.05h0.05h0.1h0.05h0.1h0.05h0.05h0.05h0.05h0.1h0.05H-3h0.05h0.05h0.05l0,0h0.05
		h0.05h0.05l0,0h0.05h0.05l0,0h0.05h0.05l0,0h7.25c2.05,0,2.05,5.15,4.1,5.15H28.4c0-1.15,0.9-2.05,2.05-2.05h2.05
		c1.15,0,2.05,0.9,2.05,2.05h3.1c2.85,0,5.15,2.3,5.15,5.15v30.85c0,2.85-2.3,5.15-5.15,5.15H-13.8c-2.85,0-5.15-2.3-5.15-5.15
		v-30.85C-18.95-5.567-16.65-7.867-13.8-7.867z"/>
	<path fill="#00519E" d="M22.25,7.033c-3.15,0-5.7,2.55-5.7,5.65c0,3.15,2.55,5.7,5.7,5.7c3.1,0,5.65-2.55,5.65-5.7
		C27.9,9.583,25.35,7.033,22.25,7.033z"/>
</g>
</svg>
